<svg width="53" height="53" viewBox="0 0 53 53" fill="none" xmlns="http://www.w3.org/2000/svg">
<g clip-path="url(#clip0_43_761)">
<path d="M13.3786 0.139768C12.8419 0.352216 12.7748 0.631751 12.7748 2.51023V4.26572L9.67753 4.29926C6.72564 4.33281 6.54673 4.34399 6.11066 4.5788C5.40623 4.95897 5.02606 5.31677 4.66825 5.97648L4.33281 6.56909L4.29926 9.66635L4.26572 12.7748H2.48787C0.810657 12.7748 0.698843 12.786 0.419307 13.0208C0.251586 13.1773 0.106227 13.4457 0.0726828 13.6805C0.0167757 14.0271 0.0615014 14.1501 0.341037 14.4632L0.67648 14.8434L2.47669 14.8769L4.2769 14.9216V17.0349V19.1482H2.49905C0.810657 19.1482 0.698843 19.1594 0.419307 19.3942C-0.0167686 19.7855 -0.0726758 20.3558 0.307493 20.8031L0.59821 21.1609L2.4096 21.1832L4.22099 21.2168L4.25454 23.3636L4.2769 25.5216H2.47669H0.67648L0.352219 25.8459C-0.0838572 26.2931 -0.0838572 26.7628 0.352219 27.21L0.67648 27.5343H2.47669H4.2769L4.25454 29.6811L4.22099 31.8391L2.4096 31.8727L0.59821 31.895L0.307493 32.2528C-0.0726758 32.7001 -0.0167686 33.2704 0.419307 33.6505C0.698843 33.8965 0.810657 33.9077 2.49905 33.9077H4.2769V36.021V38.1343L2.47669 38.179L0.67648 38.2126L0.341037 38.5927C0.0615014 38.9058 0.0167757 39.0288 0.0726828 39.3754C0.106227 39.6102 0.251586 39.8786 0.419307 40.0239C0.698843 40.2699 0.810657 40.2811 2.48787 40.2811H4.26572L4.29926 43.3784C4.33281 46.3303 4.34399 46.5092 4.5788 46.9453C4.95897 47.6497 5.31678 48.0299 5.97648 48.3877L6.5691 48.7231L9.67753 48.7566L12.7748 48.7902V50.568C12.7748 52.2453 12.786 52.3571 13.032 52.6366C13.1773 52.8043 13.4457 52.9497 13.6805 52.9832C14.0271 53.0391 14.1501 52.9944 14.4632 52.7149L14.8434 52.3794L14.8769 50.5792L14.9216 48.779H17.0349H19.1482V50.5569C19.1482 52.2453 19.1594 52.3571 19.4054 52.6366C19.7856 53.0727 20.3558 53.1286 20.8031 52.7484L21.1609 52.4577L21.1832 50.6463L21.2168 48.8349L23.3748 48.8014L25.5216 48.779V50.5792V52.3794L25.8459 52.7037C26.0695 52.9273 26.282 53.028 26.528 53.028C26.7739 53.028 26.9864 52.9273 27.21 52.7037L27.5343 52.3794V50.5792V48.779L29.6923 48.8014L31.8391 48.8349L31.8727 50.6463L31.895 52.4577L32.2528 52.7484C32.7001 53.1286 33.2704 53.0727 33.6617 52.6366C33.8965 52.3571 33.9077 52.2453 33.9077 50.5569V48.779H36.021H38.1343L38.179 50.5792L38.2126 52.3794L38.5927 52.7149C38.9058 52.9944 39.0288 53.0391 39.3754 52.9832C39.6102 52.9497 39.8786 52.8043 40.0351 52.6366C40.2699 52.3571 40.2811 52.2453 40.2811 50.568V48.7902L43.3896 48.7566L46.4868 48.7231L47.0794 48.3877C47.7391 48.0299 48.0969 47.6497 48.4771 46.9453C48.7119 46.5092 48.7231 46.3303 48.7566 43.3784L48.7902 40.2811H50.568C52.2453 40.2811 52.3571 40.2699 52.6366 40.0351C52.8043 39.8786 52.9497 39.6102 52.9832 39.3754C53.0391 39.0288 52.9944 38.9058 52.7149 38.5927L52.3794 38.2126L50.5792 38.179L48.779 38.1343V36.021V33.9077H50.5569C52.2453 33.9077 52.3571 33.8965 52.6366 33.6505C53.0727 33.2704 53.1286 32.7001 52.7484 32.2528L52.4577 31.895L50.6463 31.8727L48.8349 31.8391L48.8014 29.6811L48.779 27.5343H50.5792H52.3794L52.7037 27.21C53.1398 26.7628 53.1398 26.2931 52.7037 25.8459L52.3794 25.5216H50.5792H48.779L48.8014 23.3636L48.8349 21.2168L50.6463 21.1832L52.4577 21.1609L52.7484 20.8031C53.1286 20.3558 53.0727 19.7855 52.6366 19.3942C52.3571 19.1594 52.2453 19.1482 50.5569 19.1482H48.779V17.0349V14.9216L50.5792 14.8769L52.3794 14.8434L52.7149 14.4632C52.9944 14.1501 53.0391 14.0271 52.9832 13.6805C52.9497 13.4457 52.8043 13.1773 52.6366 13.0208C52.3571 12.786 52.2453 12.7748 50.568 12.7748H48.7902L48.7566 9.66635L48.7231 6.56909L48.3877 5.97648C48.0299 5.31677 47.6497 4.95897 46.9453 4.5788C46.5092 4.34399 46.3303 4.33281 43.3896 4.29926L40.2811 4.26572V2.48787C40.2811 0.810654 40.2699 0.69884 40.0351 0.419304C39.8786 0.251583 39.6102 0.106224 39.3754 0.0726798C39.0288 0.0167726 38.9058 0.0614983 38.5927 0.341034L38.2126 0.676477L38.179 2.47669L38.1343 4.2769H36.021H33.9077V2.49905C33.9077 0.810654 33.8965 0.69884 33.6617 0.419304C33.2704 -0.0167717 32.7001 -0.0726789 32.2528 0.30749L31.895 0.598207L31.8727 2.4096L31.8391 4.22099L29.6923 4.25454L27.5343 4.2769V2.47669V0.676477L27.21 0.352216C26.9864 0.128587 26.7739 0.027954 26.528 0.027954C26.282 0.027954 26.0695 0.128587 25.8459 0.352216L25.5216 0.676477V2.47669V4.2769L23.3748 4.25454L21.2168 4.22099L21.1832 2.4096L21.1609 0.598207L20.8031 0.30749C20.3558 -0.0726789 19.7856 -0.0167717 19.4054 0.419304C19.1594 0.69884 19.1482 0.810654 19.1482 2.49905V4.2769H17.0349H14.9216L14.8769 2.47669L14.8434 0.676477L14.4744 0.352216C14.1054 0.027954 13.8035 -0.0391346 13.3786 0.139768ZM46.3303 6.72563L46.6545 7.04989V26.528V46.006L46.3303 46.3303L46.006 46.6545H26.528H7.0499L6.72564 46.3303L6.40137 46.006V26.528V7.04989L6.72564 6.72563L7.0499 6.40137H26.528H46.006L46.3303 6.72563Z" fill="#26CDD3"/>
<path d="M10.9746 10.9746L10.6503 11.2989V26.528V41.7571L10.9746 42.0814L11.2988 42.4056H26.528H41.7571L42.0813 42.0814L42.4056 41.7571V26.528V11.2989L42.0813 10.9746L41.7571 10.6504H26.528H11.2988L10.9746 10.9746ZM40.2811 26.528V40.2812H26.528H12.7748V26.528V12.7748H26.528H40.2811V26.528Z" fill="#26CDD3"/>
<path d="M14.5079 13.8817C14.3849 13.9376 14.1837 14.0942 14.0607 14.2284C13.8594 14.452 13.837 14.6644 13.8035 16.733C13.7811 18.153 13.8147 19.137 13.8929 19.3942C14.1166 20.1881 15.1676 20.3893 15.682 19.7408C15.8832 19.4836 15.9056 19.2935 15.9056 17.6834V15.9056H26.528H37.1503V17.7058V19.506L37.4746 19.8303C37.8436 20.1992 38.2237 20.244 38.7157 19.9868C39.2189 19.7296 39.2972 19.2824 39.2524 16.7218L39.2189 14.452L38.9058 14.1501L38.6039 13.837L26.6621 13.8146C20.0986 13.8035 14.6309 13.837 14.5079 13.8817Z" fill="#26CDD3"/>
<path d="M18.0301 22.4579C16.8001 22.7933 15.805 23.6431 15.2571 24.8284C14.9999 25.3762 14.9552 25.6111 14.9552 26.5279C14.9552 27.5119 14.9887 27.6573 15.3242 28.3393C15.7826 29.2674 16.6659 30.106 17.5604 30.4526C18.0748 30.6539 18.4326 30.7098 19.3942 30.7098C20.5012 30.721 20.6018 30.6986 20.8701 30.4526C21.2727 30.0724 21.2727 29.3568 20.8701 28.9767C20.6242 28.7419 20.4453 28.6971 19.4948 28.6524C18.5444 28.5965 18.3431 28.5518 17.9406 28.2834C16.7107 27.4784 16.7107 25.5775 17.9406 24.7724C18.3431 24.5041 18.5444 24.4594 19.4948 24.4035C20.4453 24.3587 20.6242 24.314 20.8701 24.0792C21.2727 23.699 21.2727 22.9834 20.8701 22.6032C20.6242 22.3684 20.4676 22.3349 19.6178 22.3125C19.014 22.2902 18.4102 22.3461 18.0301 22.4579Z" fill="#26CDD3"/>
<path d="M24.001 22.3796C23.4083 22.6368 23.3972 22.7262 23.3972 26.5503V30.0948L23.6655 30.4079C23.878 30.6539 24.0233 30.7209 24.4035 30.7209C25.1079 30.7209 25.4098 30.3184 25.4098 29.3904V28.6859L26.405 28.63C27.21 28.5853 27.5007 28.507 27.9815 28.2499C29.055 27.6684 29.6588 26.6621 29.6588 25.4657C29.6588 24.2245 29.0102 23.1958 27.8921 22.648C27.2995 22.3572 27.1429 22.3349 25.7453 22.3125C24.9178 22.2901 24.1239 22.3237 24.001 22.3796ZM27.1765 24.683C27.6014 25.0408 27.702 25.4321 27.4784 25.9017C27.2548 26.3714 26.9081 26.5279 26.0807 26.5279H25.4098V25.4657V24.4034H26.1254C26.7292 24.4034 26.8969 24.4482 27.1765 24.683Z" fill="#26CDD3"/>
<path d="M32.5659 22.3573C32.4765 22.3909 32.2864 22.525 32.1522 22.648C31.8951 22.8717 31.8951 22.9164 31.8951 25.6223C31.8951 28.0599 31.9286 28.4288 32.1075 28.8314C33.2033 31.2354 36.4571 31.3919 37.7541 29.0997L38.1007 28.4847L38.1343 25.7341L38.1678 22.9835L37.8995 22.6592C37.5081 22.212 36.8372 22.212 36.4012 22.648L36.0881 22.9499L36.0545 25.5217L36.021 28.0822L35.6856 28.3729C35.3166 28.6748 34.9699 28.7196 34.5227 28.5183C33.9636 28.2611 33.9077 27.9816 33.9077 25.3651C33.9077 23.0282 33.8965 22.9499 33.6617 22.6816C33.4045 22.3909 32.879 22.2343 32.5659 22.3573Z" fill="#26CDD3"/>
<path d="M14.3178 33.0803C13.837 33.3374 13.7588 33.8182 13.8035 36.3341L13.837 38.6039L14.1501 38.9058L14.452 39.2189H26.528H38.6039L38.9058 38.9058L39.2189 38.6039L39.2524 36.3341C39.2972 33.7735 39.2189 33.3263 38.7157 33.0691C38.2237 32.8119 37.8436 32.8566 37.4746 33.2256L37.1503 33.5499V35.3501V37.1503H26.528H15.9056V35.3501V33.5499L15.5813 33.2256C15.2123 32.8566 14.7986 32.8119 14.3178 33.0803Z" fill="#26CDD3"/>
</g>
<defs>
<clipPath id="clip0_43_761">
<rect width="53" height="53" fill="white"/>
</clipPath>
</defs>
</svg>
