<svg width="53" height="54" viewBox="0 0 53 54" fill="none" xmlns="http://www.w3.org/2000/svg">
<g clip-path="url(#clip0_43_770)">
<path d="M24.4702 0.106422C19.5761 0.475994 14.5813 2.36865 10.4824 5.42602C9.08252 6.46754 6.37232 9.18894 5.3084 10.6112C3.00138 13.7246 1.3999 17.1851 0.57116 20.9145C0.0224014 23.3559 0.0224013 23.2103 -0.0223953 34.4206C-0.0671919 46.0006 -0.078391 45.799 0.57116 47.0869C1.09752 48.1284 2.21744 49.0803 3.58373 49.6627C3.84131 49.7747 5.91316 49.8195 12.5431 49.8643L21.1552 49.9203L21.2336 50.3794C21.424 51.4434 22.0063 52.2609 22.9471 52.7537L23.5182 53.056H26.486H29.4538L30.0249 52.7537C30.7305 52.3841 31.3464 51.6897 31.5704 51.0066C31.7832 50.3906 31.8168 47.49 31.6264 46.8405C31.4136 46.1238 30.7529 45.3734 30.0137 44.9926L29.353 44.6567H26.4972H23.6302L22.9919 44.9702C22.0175 45.4406 21.3568 46.3589 21.2448 47.3669L21.1888 47.8596L12.8342 47.826C5.18521 47.7924 4.44607 47.7812 4.0541 47.602C3.35975 47.2885 2.81099 46.7845 2.46382 46.1462C2.15024 45.5862 2.12784 45.4742 2.09424 44.0071L2.04945 42.4728H3.12457C4.08769 42.4728 4.19969 42.4952 4.19969 42.6744C4.19969 43.6599 5.10682 44.9366 6.12594 45.3958C6.6971 45.6534 6.83149 45.6646 10.1352 45.6982C14.0325 45.743 14.3125 45.6982 14.6485 45.0486C14.8277 44.6791 14.8389 44.0743 14.8165 35.9437L14.7829 27.2196L14.4133 26.8948L14.0549 26.57H10.5496C6.6859 26.57 6.30513 26.6148 5.45399 27.242C4.88283 27.6563 4.33408 28.5747 4.24448 29.2802L4.16609 29.8178H3.12457H2.07185V27.4324C2.07185 23.815 2.36302 21.8104 3.30375 18.9434C6.30513 9.78249 14.4357 3.25338 24.1006 2.25666C25.8589 2.07747 28.8378 2.17827 30.5737 2.48064C34.7062 3.19739 38.4243 4.87726 41.7393 7.52026C45.3902 10.4096 48.2012 14.4637 49.6683 18.9322C50.609 21.8216 50.9002 23.815 50.9002 27.4324V29.8178H49.8474H48.8059L48.7275 29.2802C48.6379 28.5747 48.0892 27.6563 47.518 27.242C46.6669 26.6148 46.2861 26.57 42.4224 26.57H38.9171L38.5587 26.8948L38.1891 27.2196L38.1555 35.9437C38.1331 44.0743 38.1443 44.6791 38.3235 45.0486C38.6595 45.6982 38.9395 45.743 42.8368 45.6982C46.1405 45.6646 46.2749 45.6534 46.8461 45.3958C47.8652 44.9366 48.7723 43.6599 48.7723 42.6744C48.7723 42.4952 48.8843 42.4728 49.825 42.4728H50.8778L50.9226 43.7607C50.9562 44.9702 50.9674 45.0598 51.2473 45.3398C51.6841 45.7654 52.3001 45.743 52.7144 45.2838L53.028 44.9366V35.2718C53.028 29.5714 52.9832 25.0693 52.9048 24.2742C52.4904 19.3802 50.665 14.6429 47.63 10.5664C46.5661 9.13294 43.8559 6.43394 42.3888 5.35883C37.1924 1.50632 30.7977 -0.375142 24.4702 0.106422ZM12.711 36.1453V43.5927H9.96725C7.04427 43.5927 6.7083 43.5367 6.43952 43.044C6.37232 42.8984 6.32753 40.4906 6.32753 36.0893V29.3474L6.6523 29.0226L6.97708 28.6979H9.84406H12.711V36.1453ZM46.3197 29.0226L46.6445 29.3474V36.0893C46.6445 40.4906 46.5997 42.8984 46.5325 43.044C46.2637 43.5367 45.9277 43.5927 43.0048 43.5927H40.261V36.1453V28.6979H43.1279H45.9949L46.3197 29.0226ZM4.19969 36.0893V40.345H3.13577H2.07185V36.0893V31.8336H3.13577H4.19969V36.0893ZM50.9002 36.0893V40.345H49.8362H48.7723V36.0893V31.8336H49.8362H50.9002V36.0893ZM29.3082 47.0533C29.6442 47.3557 29.6666 47.4117 29.7114 48.386C29.7786 49.7523 29.6778 50.3346 29.3194 50.693L29.0282 50.9842H26.486H23.9438L23.6526 50.693C23.2942 50.3346 23.1935 49.7523 23.2606 48.386C23.3054 47.4117 23.3278 47.3557 23.6638 47.0533L24.0222 46.7285H26.486H28.9498L29.3082 47.0533Z" fill="#26CDD3"/>
<path d="M24.6381 4.36207C17.6947 4.96683 11.5463 8.65135 7.73861 14.4973C6.00274 17.1627 4.68124 20.892 4.35646 24.0054C4.30047 24.6325 4.32287 24.7557 4.52445 25.0245C4.83803 25.4165 5.39799 25.5285 5.85715 25.2933C6.24912 25.0917 6.36111 24.7893 6.5515 23.4342C6.92107 20.7912 8.10818 17.7227 9.63127 15.4268C12.6886 10.824 17.4259 7.71062 22.9583 6.6803C24.6829 6.35552 28.5466 6.37792 30.2713 6.72509C32.1416 7.10586 33.8438 7.69942 35.6693 8.60655C41.4145 11.4959 45.491 17.1291 46.4205 23.4902C46.4989 23.983 46.5997 24.5541 46.6669 24.7557C46.8909 25.4949 47.9436 25.6517 48.4475 25.0245C48.6491 24.7557 48.6715 24.6325 48.6155 24.0054C48.2124 20.0297 46.3981 15.7292 43.7551 12.4479C42.9824 11.4847 41.1793 9.71527 40.1938 8.96492C35.8149 5.59398 30.0473 3.89171 24.6381 4.36207Z" fill="#26CDD3"/>
</g>
<defs>
<clipPath id="clip0_43_770">
<rect width="53" height="53.084" fill="white"/>
</clipPath>
</defs>
</svg>
