<svg width="53" height="39" viewBox="0 0 53 39" fill="none" xmlns="http://www.w3.org/2000/svg">
<g clip-path="url(#clip0_43_786)">
<path d="M25.8476 -14.8938C25.5341 -14.6221 25.5341 -14.5995 25.4781 -13.083C25.4221 -11.5891 25.4109 -11.5438 25.1085 -11.2382L24.8061 -10.9213L19.2849 -10.8648L13.775 -10.8082L13.1254 -10.5026C12.2295 -10.0725 11.3559 -9.20109 10.964 -8.34097C10.6728 -7.71851 10.6392 -7.5148 10.6504 -6.56413C10.6504 -5.65874 10.6952 -5.38712 10.9416 -4.86652C11.5463 -3.54238 12.7558 -2.61435 14.1669 -2.388C14.6485 -2.30878 19.0386 -2.26351 26.822 -2.26351C38.2227 -2.26351 38.7715 -2.25219 39.141 -2.04848C40.317 -1.4147 40.6417 0.215009 39.7906 1.19963C39.0851 2.01448 39.3538 1.96921 33.2055 2.03712C27.0236 2.10502 27.3595 2.05975 26.4524 2.93119C25.7693 3.57629 25.5565 4.09689 25.4781 5.26258L25.4221 6.28115L24.9293 6.36038C23.3166 6.64331 22.3535 7.83164 22.2527 9.69902L22.2079 10.6384L12.1623 10.661C2.81099 10.695 2.10544 10.7063 1.76947 10.8987C1.15351 11.2382 0.615954 11.7814 0.302377 12.3812L0 12.9584V24.5135V36.0573L0.335975 36.725C0.548759 37.1438 0.851136 37.5399 1.15351 37.7663C2.15024 38.5358 0.302377 38.4793 26.71 38.4566L50.6202 38.4227L51.1353 38.185C51.7849 37.8794 52.4344 37.223 52.7368 36.5666C52.972 36.046 52.972 36.0347 52.972 24.5022V12.9584L52.6696 12.3812C52.356 11.7814 51.8185 11.2382 51.2025 10.8987C50.8666 10.7063 50.161 10.695 40.8097 10.661L30.7641 10.6384L30.7193 9.69902C30.6185 7.83164 29.6554 6.64331 28.0427 6.36038L27.5499 6.28115L27.5163 5.71528C27.4827 4.95701 27.7627 4.40246 28.2779 4.22138C28.5578 4.13084 30.1481 4.08557 33.8438 4.08557C38.7939 4.07425 39.0515 4.06294 39.645 3.83659C43.1279 2.52377 43.3071 -2.37668 39.925 -4.00639L39.197 -4.35723L26.71 -4.41382C13.9205 -4.47041 13.9989 -4.47041 13.4838 -4.88915C12.3303 -5.8285 12.4871 -7.76378 13.775 -8.47678C14.0661 -8.63522 14.7829 -8.66918 19.5985 -8.71445L25.0861 -8.77103L25.7245 -9.08792C26.0828 -9.269 26.542 -9.60852 26.7548 -9.86882C27.3595 -10.5818 27.4939 -11.1251 27.4939 -12.9358V-14.509L27.1691 -14.8372C26.7548 -15.2446 26.2844 -15.2672 25.8476 -14.8938ZM28.2891 8.80494C28.5802 9.13315 28.6138 9.25764 28.6138 9.90273V10.6384H26.486H24.3582V9.91405C24.3582 9.30291 24.403 9.13315 24.6381 8.83889C24.9965 8.42015 25.1309 8.3862 26.6876 8.40883L27.9643 8.43147L28.2891 8.80494ZM50.2058 12.8C50.945 13.0603 50.9002 12.3133 50.9002 24.5588V35.6725L50.5754 36.0007L50.2506 36.3289H26.486H2.72139L2.39662 36.0007L2.07184 35.6725V24.5362C2.07184 14.1694 2.09424 13.3885 2.27343 13.1622C2.37422 13.0263 2.587 12.8566 2.74379 12.8C3.14696 12.6416 49.7466 12.6302 50.2058 12.8Z" fill="#26CDD3"/>
<path d="M9.06014 13.9204C8.50018 14.1467 8.45538 14.3617 8.45538 16.9421C8.45538 18.2549 8.50018 19.4659 8.56737 19.6244C8.78016 20.2015 9.13853 20.2694 11.7591 20.2355L14.167 20.2015L14.4693 19.8847L14.7829 19.5791V17.0213V14.4636L14.4133 14.1354L14.055 13.8072L11.6695 13.8185C10.3704 13.8185 9.18333 13.8638 9.06014 13.9204ZM12.7111 17.0327V18.1078H11.6471H10.5832V17.0327V15.9575H11.6471H12.7111V17.0327Z" fill="#26CDD3"/>
<path d="M16.3843 13.9883C15.9028 14.2486 15.8244 14.7353 15.8692 17.2817L15.9028 19.5791L16.2164 19.8847L16.5187 20.2016L18.7922 20.2355C20.2257 20.2582 21.2112 20.2242 21.4688 20.145C22.1743 19.9413 22.2303 19.7036 22.2303 17.044C22.2303 15.7652 22.1855 14.5995 22.1183 14.441C21.9055 13.8751 21.5584 13.8072 19.0161 13.8072C17.1795 13.8186 16.6195 13.8525 16.3843 13.9883ZM20.1025 17.0327V18.1079H19.0385H17.9746V17.0327V15.9576H19.0385H20.1025V17.0327Z" fill="#26CDD3"/>
<path d="M23.675 14.1354L23.3502 14.4636V17.0213C23.3502 19.5451 23.3502 19.5678 23.619 19.8846L23.8878 20.2015H26.486H29.0842L29.353 19.8846C29.6217 19.5678 29.6217 19.5451 29.6217 17.0213V14.4636L29.297 14.1354L28.9722 13.8072H26.486H23.9998L23.675 14.1354ZM27.6059 17.0327V18.1078H26.486H25.3661V17.0327V15.9575H26.486H27.6059V17.0327Z" fill="#26CDD3"/>
<path d="M31.3017 13.9544C30.7977 14.2147 30.7417 14.4863 30.7417 17.0101C30.7417 19.7149 30.7977 19.9413 31.5032 20.145C31.7608 20.2242 32.7463 20.2582 34.1798 20.2355L36.4533 20.2016L36.7556 19.8847L37.0692 19.5791L37.1028 17.2817C37.1476 14.69 37.0692 14.2373 36.5653 13.977C36.1285 13.7507 31.7384 13.728 31.3017 13.9544ZM34.9974 17.0327V18.1079H33.9335H32.8695V17.0327V15.9576H33.9335H34.9974V17.0327Z" fill="#26CDD3"/>
<path d="M38.5587 14.1354L38.1891 14.4636V17.0214V19.5791L38.5027 19.8847L38.805 20.2016L41.1793 20.2355C42.8367 20.2581 43.6431 20.2355 43.8671 20.1337C44.4606 19.8847 44.5166 19.6131 44.5166 16.9308C44.5166 14.5202 44.5166 14.4976 44.2478 14.1807L43.979 13.8638L41.4592 13.8298L38.9282 13.7959L38.5587 14.1354ZM42.3888 17.0327V18.1078H41.3249H40.2609V17.0327V15.9575H41.3249H42.3888V17.0327Z" fill="#26CDD3"/>
<path d="M7.16745 21.3673C6.37231 21.6389 6.32751 21.7973 6.32751 24.6154V27.0712L6.65229 27.3995L6.97707 27.7277H10.4712C14.4133 27.7277 14.5141 27.705 14.7157 26.9581C14.7829 26.7317 14.8389 25.6 14.8389 24.4456C14.8389 22.0237 14.7493 21.6615 14.0549 21.4238C13.6294 21.2767 7.59302 21.2315 7.16745 21.3673ZM12.711 24.5022V25.5773H10.5832H8.45535V24.5022V23.427H10.5832H12.711V24.5022Z" fill="#26CDD3"/>
<path d="M16.6756 21.3559C16.5412 21.3786 16.3172 21.5257 16.1716 21.6842C15.914 21.9671 15.9028 22.035 15.8692 24.1966C15.8244 26.7317 15.8692 27.0826 16.2388 27.456C16.5076 27.7277 16.5188 27.7277 19.0274 27.7277C21.5248 27.7277 21.5472 27.7277 21.8608 27.456L22.1744 27.1844L22.2079 24.638L22.2415 22.0803L21.9056 21.7068L21.5808 21.3333L19.2402 21.322C17.9635 21.3107 16.7988 21.322 16.6756 21.3559ZM20.1025 24.5022V25.5773H19.0386H17.9747V24.5022V23.427H19.0386H20.1025V24.5022Z" fill="#26CDD3"/>
<path d="M24.0558 21.4012C23.3838 21.6049 23.3502 21.7294 23.3502 24.5701V27.1392L23.6974 27.4334L24.0446 27.7277H26.5084H28.9722L29.297 27.3995L29.6217 27.0712V24.5361C29.6217 21.6955 29.5993 21.6049 28.8602 21.3899C28.3562 21.2541 24.5485 21.2541 24.0558 21.4012ZM27.5835 24.5248L27.6171 25.5773H26.486H25.3661V24.5814C25.3661 24.0269 25.3997 23.5402 25.4445 23.4949C25.4893 23.4497 25.982 23.4384 26.542 23.4497L27.5499 23.4836L27.5835 24.5248Z" fill="#26CDD3"/>
<path d="M31.5592 21.3559C31.4248 21.3786 31.1784 21.5597 31.0216 21.7521L30.7305 22.1029L30.7641 24.638L30.7977 27.1844L31.1112 27.456C31.4248 27.7277 31.4472 27.7277 33.8214 27.7277C35.1317 27.7277 36.3412 27.6824 36.5092 27.6145C37.058 27.3995 37.1364 26.9468 37.1028 24.3211L37.0692 21.9558L36.7556 21.6502L36.4532 21.3333L34.1238 21.322C32.8471 21.3107 31.6936 21.322 31.5592 21.3559ZM34.9973 24.5022V25.5773H33.9334H32.8695V24.5022V23.427H33.9334H34.9973V24.5022Z" fill="#26CDD3"/>
<path d="M38.9171 21.4239C38.2227 21.6615 38.1331 22.0237 38.1331 24.4456C38.1331 25.6 38.1891 26.7317 38.2563 26.9581C38.4579 27.705 38.5587 27.7277 42.5008 27.7277H45.9949L46.3197 27.3995L46.6445 27.0713V24.6154C46.6445 21.8086 46.5885 21.5936 45.8829 21.4012C45.2894 21.2315 39.421 21.2541 38.9171 21.4239ZM44.5166 24.5022V25.5773H42.3888H40.261V24.5022V23.427H42.3888H44.5166V24.5022Z" fill="#26CDD3"/>
<path d="M3.48295 29.1423L3.19177 29.4139V32.0283V34.6426L3.47175 34.9142L3.74053 35.1971H6.26034C7.63784 35.1971 8.85855 35.1632 8.95934 35.1292C9.3961 34.9595 9.4633 34.5181 9.4633 31.9717V29.5158L9.13852 29.1876L8.81375 28.8594H6.29394C3.78533 28.8594 3.78533 28.8594 3.48295 29.1423ZM7.33546 32.0848V33.16H6.27154H5.20762V32.0848V31.0097H6.27154H7.33546V32.0848Z" fill="#26CDD3"/>
<path d="M10.908 29.1877L10.5832 29.5159V31.9718C10.5832 34.4503 10.628 34.7445 11.02 35.0501C11.2775 35.2538 41.6944 35.2538 41.952 35.0501C42.344 34.7445 42.3888 34.4503 42.3888 31.9718V29.5159L42.064 29.1877L41.7392 28.8595H26.486H11.2327L10.908 29.1877ZM40.261 32.0849V33.1601H26.486H12.711V32.0849V31.0098H26.486H40.261V32.0849Z" fill="#26CDD3"/>
<path d="M43.8335 29.1876L43.5087 29.5158V32.0622V34.5973L43.7999 34.9029L44.1023 35.1971H46.6669H49.2315L49.5003 34.9142L49.7803 34.6426V32.0283V29.4139L49.4891 29.1423C49.1867 28.8594 49.1867 28.8594 46.6781 28.8594H44.1583L43.8335 29.1876ZM47.7644 32.0848V33.16H46.7005H45.6366V32.0848V31.0097H46.7005H47.7644V32.0848Z" fill="#26CDD3"/>
</g>
<defs>
<clipPath id="clip0_43_786">
<rect width="53" height="38.451" fill="white"/>
</clipPath>
</defs>
</svg>
