<svg width="53" height="42" viewBox="0 0 53 42" fill="none" xmlns="http://www.w3.org/2000/svg">
<g clip-path="url(#clip0_43_750)">
<path d="M1.86995 0.294498C1.1443 0.627831 0.407494 1.45005 0.195383 2.17228C-0.0613841 3.02783 -0.0613841 32.7056 0.195383 33.5501C0.418658 34.3056 1.17779 35.1389 1.94809 35.4834L2.53977 35.7501L11.3368 35.7834L20.1227 35.8167V37.9167V40.0278H18.3812C17.4099 40.0278 16.5503 40.0723 16.4275 40.1389C16.1038 40.3167 15.8582 40.8834 15.9363 41.2612C15.981 41.4389 16.1372 41.6834 16.2935 41.8056C16.5726 42.0278 16.7289 42.0278 26.4861 42.0278C36.2432 42.0278 36.3995 42.0278 36.6786 41.8056C36.8349 41.6834 36.9912 41.4389 37.0358 41.2612C37.114 40.8834 36.8684 40.3167 36.5446 40.1389C36.4218 40.0723 35.5622 40.0278 34.591 40.0278H32.8494V37.9167V35.8167L41.6465 35.7834L50.4324 35.7501L51.024 35.4834C51.7943 35.1389 52.5535 34.3056 52.7767 33.5501C53.0335 32.7056 53.0335 3.02783 52.7767 2.17228C52.5646 1.45005 51.8278 0.627831 51.1022 0.294498L50.544 0.027831H26.4861H2.42814L1.86995 0.294498ZM50.2649 2.1945C50.4435 2.28339 50.6445 2.46116 50.7114 2.57228C50.7896 2.71672 50.8231 7.75005 50.8231 17.8834C50.8231 34.3723 50.8677 33.2945 50.1867 33.5723C49.9523 33.6612 43.8569 33.6945 26.2851 33.6723L2.6849 33.6389L2.41697 33.3278L2.14904 33.0167V17.9056C2.14904 7.7945 2.18253 2.71672 2.26068 2.58339C2.57327 2.00561 1.17779 2.03894 26.4637 2.02783C47.1949 2.02783 49.9746 2.05005 50.2649 2.1945ZM30.7283 37.9167V40.0278H26.4861H22.2438V37.9167V35.8056H26.4861H30.7283V37.9167Z" fill="#26CDD3"/>
<path d="M5.10747 4.22781C4.75023 4.35004 4.53812 4.50559 4.39299 4.77226C4.30368 4.95004 4.27019 8.4167 4.27019 17.8611C4.27019 31.9945 4.22553 31.2056 4.95118 31.4611C5.45355 31.6389 47.5186 31.6389 48.021 31.4611C48.7467 31.2056 48.702 31.9945 48.702 17.8611C48.702 3.56115 48.7578 4.48337 47.9429 4.26115C47.4851 4.12781 5.4982 4.10559 5.10747 4.22781ZM46.5809 17.8611V29.4723H26.4861H6.39131V17.8611V6.25004H26.4861H46.5809V17.8611Z" fill="#26CDD3"/>
</g>
<defs>
<clipPath id="clip0_43_750">
<rect width="53" height="42" fill="white"/>
</clipPath>
</defs>
</svg>
