<svg width="53" height="42" viewBox="0 0 53 42" fill="none" xmlns="http://www.w3.org/2000/svg">
<g clip-path="url(#clip0_43_802)">
<path d="M16.2942 -1.53356C15.8347 -1.30329 15.7784 -0.962505 15.8159 1.24802C15.844 3.14539 15.8628 3.3296 16.0597 3.76249C16.3317 4.34276 16.8287 4.83092 17.4383 5.10723L17.9072 5.31907L26.4883 5.36513C36.0728 5.42039 35.3882 5.36513 35.9321 6.06513C36.1291 6.33223 36.1947 6.52565 36.2228 6.98618C36.2791 7.77828 35.9884 8.28486 35.285 8.62565L34.7973 8.86513H31.2993C27.3042 8.86513 27.1541 8.88355 26.4226 9.62039C25.8412 10.2007 25.6442 10.698 25.6442 11.5914C25.6442 12.4112 25.6161 12.4572 24.9784 12.4572C24.8377 12.4572 24.2281 12.577 23.6186 12.7335C19.8579 13.6638 16.7256 16.5467 15.5252 20.1664C15.0094 21.7414 15 21.852 15 27.2862V32.3059L15.2532 33.273C16.4161 37.7678 19.8954 40.9914 24.5189 41.848C25.3348 42.0046 27.5855 42.0046 28.4577 41.848C30.7085 41.452 32.781 40.4112 34.4316 38.8638C36.1197 37.2704 37.1607 35.4835 37.7609 33.1349C37.9766 32.3243 37.9766 32.1954 37.9766 27.2862C37.9766 21.852 37.9672 21.7414 37.4514 20.1664C36.251 16.5467 33.1187 13.6638 29.358 12.7335C28.7484 12.577 28.1388 12.4572 27.9982 12.4572C27.4167 12.4572 27.3323 12.3743 27.3323 11.8954C27.3323 11.352 27.5293 10.8546 27.7825 10.7164C27.9138 10.652 29.0673 10.6151 31.1961 10.6151C32.9874 10.6151 34.6848 10.5691 35.0224 10.5138C36.2041 10.3296 37.2075 9.57434 37.7327 8.49671C37.939 8.06381 37.9766 7.86118 37.9766 7.11513C37.9766 6.35065 37.9484 6.17565 37.714 5.67828C37.3764 4.96907 36.6542 4.25986 35.9134 3.91907L35.3507 3.66118L26.7696 3.61513C22.0524 3.58749 18.1136 3.53223 18.0198 3.48618C17.6353 3.30197 17.579 2.98881 17.579 0.907232C17.579 -1.01777 17.5696 -1.08224 17.3727 -1.3125C17.1288 -1.57961 16.613 -1.69014 16.2942 -1.53356ZM28.3452 14.2533C31.8151 14.898 34.7411 17.4678 35.8008 20.7928C36.0915 21.7046 36.2979 22.9388 36.1853 23.0493C36.054 23.1783 33.3344 23.8507 32.1152 24.0533C29.9676 24.4217 29.1986 24.477 26.4883 24.477C23.853 24.477 22.9808 24.4125 21.0958 24.0901C19.5203 23.823 16.9694 23.2059 16.7912 23.0401C16.6787 22.9388 16.885 21.6954 17.1757 20.7928C18.2073 17.5599 21.0677 14.9901 24.4157 14.2993C25.4473 14.0783 27.3136 14.0599 28.3452 14.2533ZM18.4418 25.3059C21.274 25.9967 23.2434 26.2178 26.4883 26.2178C30.0707 26.2178 32.6497 25.8678 36.0353 24.9283L36.251 24.8638L36.2228 28.6309L36.1853 32.398L35.9321 33.227C35.0506 36.1099 32.978 38.4217 30.2677 39.5362C28.9266 40.0888 28.1857 40.227 26.4883 40.227C25.166 40.227 24.8283 40.1901 24.1437 40.0151C20.6363 39.0757 18.0948 36.6533 17.0444 33.227L16.7912 32.398L16.7537 28.6309L16.7256 24.8638L16.9413 24.9283C17.0632 24.9651 17.7291 25.1309 18.4418 25.3059Z" fill="#26CDD3"/>
<path d="M25.738 15.948C25.0159 16.1783 24.3688 16.7493 24.0593 17.4309C23.8905 17.7901 23.8624 18.0388 23.8624 19.3191C23.8624 20.6822 23.8811 20.8296 24.0874 21.2533C25.0628 23.2888 27.9231 23.2888 28.8891 21.2533C29.0954 20.8296 29.1142 20.673 29.1142 19.3191C29.1142 18.0388 29.086 17.7901 28.9172 17.4309C28.6828 16.9243 28.1576 16.3717 27.6605 16.123C27.2573 15.9112 26.1506 15.8098 25.738 15.948ZM26.8259 17.6612C27.2854 17.8454 27.4261 18.2322 27.4261 19.3191C27.4261 20.4059 27.2854 20.7927 26.8165 20.9769C26.5258 21.1059 26.4507 21.1059 26.16 20.9769C25.6911 20.7927 25.5504 20.4059 25.5504 19.3191C25.5504 18.2506 25.6911 17.8546 26.1319 17.6612C26.5164 17.4954 26.4414 17.4954 26.8259 17.6612Z" fill="#26CDD3"/>
</g>
<defs>
<clipPath id="clip0_43_802">
<rect width="53" height="42" fill="white"/>
</clipPath>
</defs>
</svg>
