<svg width="53" height="49" viewBox="0 0 53 49" fill="none" xmlns="http://www.w3.org/2000/svg">
<g clip-path="url(#clip0_43_774)">
<path d="M0.62054 0.0838839C0.0502865 0.318694 0.0279236 0.508778 0.0279236 5.32798V9.81173L0.352185 10.1695C0.765898 10.6392 1.35851 10.6503 1.80577 10.2143L2.09649 9.92355L2.13003 6.01004L2.16358 2.09654H26.5279H50.8923L50.9258 6.01004L50.9594 9.92355L51.2501 10.2143C51.6862 10.6392 52.3011 10.6168 52.7148 10.1584L53.0279 9.81173V5.32798C53.0279 0.464053 53.0056 0.307513 52.4018 0.0838839C52.0328 -0.0614748 0.967164 -0.0502933 0.62054 0.0838839Z" fill="#26CDD3"/>
<path d="M4.60115 4.5453L4.27689 4.86956V8.34699C4.27689 10.5721 4.32161 11.9027 4.39988 12.0816C4.67942 12.6854 4.14271 12.663 15.626 12.6966C21.4739 12.7189 26.4161 12.6966 26.6286 12.663C26.8298 12.6183 27.1206 12.4729 27.2659 12.3276L27.5343 12.0592V8.42526V4.80247L27.1876 4.51175L26.841 4.22104H15.8832H4.92541L4.60115 4.5453ZM25.5216 8.46998V10.5945H15.9615H6.40136V8.46998V6.34551H15.9615H25.5216V8.46998Z" fill="#26CDD3"/>
<path d="M30.1172 4.5117L29.7705 4.80242V8.38048C29.7705 10.7174 29.8153 12.0256 29.8935 12.1822C30.1507 12.663 30.5756 12.7189 33.8741 12.7189C35.6743 12.7189 37.1615 12.6741 37.3963 12.6071C38.1566 12.3946 38.1566 12.4058 38.1566 8.43638V4.8695L37.8324 4.54524L37.5081 4.22098H33.9859H30.4638L30.1172 4.5117ZM36.0321 8.46993V10.5944H33.9077H31.7832V8.46993V6.34545H33.9077H36.0321V8.46993Z" fill="#26CDD3"/>
<path d="M40.8178 4.39988C40.3146 4.66824 40.2587 5.08195 40.3035 8.71592L40.337 12.048L40.6501 12.3499L40.952 12.663H44.463C48.2535 12.663 48.4212 12.6406 48.6672 12.0592C48.7454 11.8467 48.779 10.6279 48.7566 8.25748L48.7231 4.75769L48.41 4.48933L48.0969 4.22098H44.6083C41.757 4.23216 41.0638 4.25452 40.8178 4.39988ZM46.6545 8.46993V10.5944H44.53H42.4056V8.46993V6.34545H44.53H46.6545V8.46993Z" fill="#26CDD3"/>
<path d="M0.396923 12.9873L0.0838428 13.2557L0.0502985 17.9183L0.0167542 22.5698L0.352197 22.894L0.676459 23.2295H18.0636H35.4395L35.7191 22.95C35.9203 22.7487 36.021 22.5027 36.0657 22.0666C36.3005 19.7297 38.5927 18.3879 40.6725 19.3831C41.5334 19.7856 42.4056 21.0379 42.4056 21.8654C42.4056 22.3573 42.6739 22.9611 42.9423 23.1065C43.0988 23.1848 44.6978 23.2295 47.7727 23.2295H52.3794L52.7037 22.894L53.0391 22.5698L53.0056 17.9183L52.972 13.2557L52.659 12.9873C52.2452 12.6295 51.6862 12.6295 51.2725 12.9873L50.9594 13.2557L50.9258 17.2362L50.8923 21.2168H49.8412H48.779V19.4166V17.6164L48.4547 17.2922C47.918 16.7666 47.1577 16.8673 46.8222 17.527C46.6992 17.773 46.6545 18.2538 46.6545 19.5396V21.2168H45.5587H44.4518L44.3064 20.736C44.0604 19.8974 43.6244 19.1706 42.9758 18.5221C40.1917 15.7379 35.5625 16.8225 34.2431 20.5683L34.0419 21.1609H32.9349H31.8391L31.8056 19.3607C31.7832 17.5829 31.772 17.5493 31.4813 17.2586C31.1235 16.9008 30.5197 16.8673 30.106 17.1915C29.8265 17.3928 29.8265 17.4375 29.7706 19.2824L29.7146 21.1609H28.6524H27.5902L27.5566 19.3607C27.5343 17.5829 27.5231 17.5493 27.2324 17.2586C27.0311 17.0462 26.8298 16.9679 26.5279 16.9679C26.226 16.9679 26.0248 17.0462 25.8235 17.2586C25.5328 17.5493 25.5216 17.5829 25.4992 19.3607L25.4657 21.1609H24.4035H23.3412L23.2853 19.2824C23.2294 17.4375 23.2294 17.3928 22.9499 17.1915C22.5362 16.8673 21.9324 16.9008 21.5746 17.2586C21.2838 17.5493 21.2727 17.5829 21.2503 19.3607L21.2168 21.1609H20.1545H19.0923L19.0364 19.2824C18.9805 17.4711 18.9693 17.3816 18.7121 17.1803C18.3431 16.8784 17.7729 16.912 17.3927 17.2362L17.0796 17.5046L17.0237 19.3384L16.9678 21.1609L15.9391 21.1945L14.8992 21.228V19.685C14.8992 18.8352 14.8433 17.9519 14.7874 17.7282C14.5638 16.9232 13.6916 16.6995 13.099 17.2922L12.7748 17.6164V19.4166V21.2168H11.7125H10.6503V19.5955C10.6503 17.4263 10.4602 16.9679 9.53216 16.9679C9.28616 16.9679 9.07372 17.0685 8.85009 17.2922L8.52583 17.6164V19.4166V21.2168H7.46359H6.40135V19.5396C6.40135 18.2538 6.35663 17.773 6.23363 17.527C5.89819 16.8673 5.13785 16.7666 4.60114 17.2922L4.27688 17.6164V19.4166V21.2168H3.21464H2.15241V17.4151C2.15241 13.3563 2.11886 13.1103 1.60452 12.8308C1.23553 12.6407 0.732366 12.7078 0.396923 12.9873Z" fill="#26CDD3"/>
<path d="M0.352197 25.8012L0.0167542 26.1255L0.0502985 30.777L0.0838428 35.4396L0.396923 35.708C0.732366 35.9875 1.23553 36.0546 1.60452 35.8645C2.11886 35.585 2.15241 35.339 2.15241 31.2801V27.4784H26.5279H50.8923L50.9258 31.459L50.9594 35.4396L51.2725 35.708C51.6862 36.0658 52.2452 36.0658 52.659 35.708L52.972 35.4396L53.0056 30.777L53.0391 26.1255L52.7037 25.8012L52.3794 25.4658H26.5279H0.676459L0.352197 25.8012Z" fill="#26CDD3"/>
<path d="M4.5676 30.0614L4.27689 30.408V33.9302V37.4523L4.60115 37.7766L4.92541 38.1008H15.8832H26.841L27.1876 37.8101L27.5343 37.5194V33.8966V30.2626L27.2547 29.9943L26.9864 29.7148H15.9168H4.85832L4.5676 30.0614ZM25.4993 33.8742L25.5216 35.9764H15.9615H6.40136V33.8519V31.7274L15.9391 31.7498L25.4657 31.7833L25.4993 33.8742Z" fill="#26CDD3"/>
<path d="M30.0501 29.9943L29.7705 30.2626V33.8742C29.7817 36.5354 29.8153 37.5306 29.9159 37.6648C30.229 38.0785 30.475 38.1008 34.0195 38.1008H37.5081L37.8324 37.7766L38.1566 37.4523V33.8742V30.3074L37.8771 30.0055L37.6087 29.7148H33.9636H30.3184L30.0501 29.9943ZM36.0321 33.8519V35.9764H33.9077H31.7832V33.9302C31.7832 32.8008 31.8167 31.8392 31.8615 31.8057C31.895 31.761 32.8566 31.7274 33.9859 31.7274H36.0321V33.8519Z" fill="#26CDD3"/>
<path d="M40.8066 29.8377C40.337 30.1061 40.2811 30.5422 40.2811 33.9078C40.2811 37.2958 40.337 37.7207 40.8178 37.9778C40.9743 38.0561 42.2714 38.1008 44.5859 38.1008H48.1305L48.4547 37.7766L48.779 37.4523V33.9302V30.408L48.4883 30.0614L48.1976 29.7148H44.6083C42.2602 29.7259 40.9408 29.7595 40.8066 29.8377ZM46.6545 33.8519V35.9764H44.53H42.4056V33.8519V31.7274H44.53H46.6545V33.8519Z" fill="#26CDD3"/>
<path d="M0.631721 38.2797C0.441637 38.3691 0.229189 38.5704 0.150919 38.7269C0.0726493 38.917 0.0279236 40.3706 0.0279236 43.4231C0.0279236 48.2312 0.0502865 48.3877 0.654084 48.6113C0.832987 48.6784 7.4524 48.7231 18.1418 48.7231H35.3501L35.6408 48.466C35.8756 48.2647 35.9651 48.0411 36.0881 47.3478C36.2558 46.3639 36.4906 45.9278 37.195 45.2793C38.4473 44.1276 40.5271 44.2729 41.6564 45.6035C42.0813 46.0843 42.4056 46.8782 42.4056 47.3814C42.4056 47.5491 42.4615 47.8398 42.5286 48.0411C42.7634 48.712 42.8305 48.7231 47.7056 48.7231C50.8923 48.7231 52.2005 48.6896 52.4129 48.589C53.0167 48.3206 53.0279 48.22 53.0279 43.3672V38.8835L52.7037 38.5257C52.2899 38.0561 51.6973 38.0449 51.2501 38.4809L50.9594 38.7717L50.9258 42.6852L50.8923 46.5987H49.8412H48.779V44.9215C48.779 42.9982 48.6895 42.674 48.0745 42.4727C47.6273 42.3274 47.2695 42.428 46.934 42.797C46.7328 43.0206 46.7104 43.2331 46.6769 44.8208L46.6433 46.5987H45.5364H44.4406L44.2505 46.0061C43.8591 44.7761 42.8193 43.5797 41.6005 42.9647C39.7444 42.0366 37.5752 42.2603 35.9762 43.5461C35.1824 44.1947 34.545 45.0892 34.2767 45.9501L34.0754 46.5987H32.9349H31.7832V44.8544C31.7832 43.8816 31.7385 43.0206 31.6714 42.8976C31.4925 42.5734 30.9222 42.3274 30.5421 42.4056C30.3632 42.4504 30.1172 42.6069 29.9942 42.7634C29.7929 43.0206 29.7705 43.2219 29.7705 44.8208V46.5987H28.6524H27.5343V44.8544C27.5343 43.8816 27.4895 43.0206 27.4224 42.8976C27.2435 42.5734 26.6733 42.3274 26.2931 42.4056C26.1142 42.4504 25.8682 42.6069 25.7452 42.7634C25.544 43.0206 25.5216 43.2219 25.5216 44.8208V46.5987H24.4035H23.2853V44.8208C23.2853 43.2219 23.2629 43.0206 23.0617 42.7634C22.9387 42.6069 22.6927 42.4504 22.5138 42.4056C22.1336 42.3274 21.5634 42.5734 21.3845 42.8976C21.3174 43.0206 21.2726 43.8816 21.2726 44.8544V46.5987H20.1545H19.0364V44.8208C19.0364 43.2219 19.014 43.0206 18.8127 42.7634C18.6897 42.6069 18.4437 42.4504 18.2648 42.4056C17.8847 42.3274 17.3144 42.5734 17.1355 42.8976C17.0684 43.0206 17.0237 43.8816 17.0237 44.8544V46.5987H15.9726H14.9216L14.8769 44.8208C14.8433 43.2331 14.821 43.0206 14.6197 42.797C14.2843 42.428 13.9264 42.3274 13.4904 42.4615C12.8307 42.6852 12.7748 42.8641 12.7748 44.832V46.5987H11.7237H10.6615L10.6279 44.8208C10.5944 43.2331 10.572 43.0206 10.3708 42.797C10.0353 42.428 9.6775 42.3274 9.23024 42.4727C8.61527 42.674 8.52581 42.9982 8.52581 44.9215V46.5987H7.47476H6.41252L6.37898 44.8208C6.34543 43.2331 6.32307 43.0206 6.12181 42.797C5.78636 42.428 5.42856 42.3274 4.9813 42.4727C4.36632 42.674 4.27687 42.9982 4.27687 44.9215V46.5987H3.21463H2.16358L2.13003 42.6852L2.09649 38.7717L1.81695 38.5033C1.44797 38.1455 1.05662 38.0784 0.631721 38.2797Z" fill="#26CDD3"/>
</g>
<defs>
<clipPath id="clip0_43_774">
<rect width="53" height="48.7231" fill="white"/>
</clipPath>
</defs>
</svg>
