<svg width="53" height="41" viewBox="0 0 53 41" fill="none" xmlns="http://www.w3.org/2000/svg">
<g clip-path="url(#clip0_43_754)">
<path d="M0.441664 0.251642C-0.173315 0.732444 -0.00559346 1.77232 0.710018 2.02949C0.911284 2.09658 1.78344 2.15249 2.66677 2.15249H4.2769V8.5259V14.8993H2.47669H0.676474L0.352212 15.2236L0.0167694 15.559L0.0503137 21.2727L0.083858 26.9976L0.396938 27.266C0.698837 27.5232 0.765926 27.5343 2.48787 27.5343H4.2769L4.29926 33.6394L4.3328 39.7445L4.64588 40.0128C4.99251 40.3035 5.33913 40.3483 5.78639 40.147C6.37901 39.8786 6.40137 39.7221 6.40137 35.585V31.7833H7.4636H8.52584V33.5835V35.3837L8.8501 35.708L9.17436 36.0322H11.6007C14.3737 36.0322 14.5862 35.9763 14.7763 35.2719C14.8434 35.0483 14.8993 34.1649 14.8993 33.3151V31.7833H15.9615H17.0237V33.5835V35.3837L17.348 35.708L17.6723 36.0322H20.0874C22.6033 36.0322 22.9387 35.9763 23.1623 35.5403C23.2294 35.4061 23.2965 34.5675 23.3077 33.5723L23.3412 31.8392L24.437 31.8057L25.5216 31.7721V33.617V35.4508L25.8682 35.7415L26.2149 36.0322H39.2748H52.3459L52.659 35.7639L52.972 35.4955V23.3525V11.2094L50.568 8.80544L48.1528 6.40143H30.2402H12.3163L12.0592 6.6586C11.8803 6.83751 11.7014 7.32949 11.4442 8.35818C11.2541 9.16325 11.0417 10.0019 10.9746 10.2255L10.8628 10.6504H8.63766H6.40137V5.78645C6.40137 2.2643 6.36782 0.85544 6.26719 0.642992C6.01002 0.0839207 5.73048 0.0280135 3.12521 0.0280135C0.87774 0.0280135 0.710018 0.039195 0.441664 0.251642ZM49.1368 10.2814L50.9035 12.0481V22.9723V33.9078H49.7965H48.7007L48.7566 32.3535C48.779 31.5038 48.779 30.6763 48.7343 30.5086C48.5554 29.7818 47.6273 29.5246 47.0235 30.039L46.7104 30.3073L46.6769 32.1076L46.6434 33.9078H46.0843H45.5252L45.5476 32.1858C45.5588 30.2962 45.5028 30.0613 44.955 29.8377C44.5189 29.6476 44.1611 29.7259 43.8033 30.0725C43.5573 30.3185 43.5237 30.4527 43.5237 31.1124C43.5237 31.5261 43.4902 32.32 43.4566 32.8791L43.3784 33.9078H35.4619H27.5343V32.1411C27.5343 30.1508 27.4784 29.9719 26.7739 29.7706C26.2372 29.6253 22.5697 29.6253 22.033 29.7706C21.3286 29.9719 21.2727 30.1508 21.2727 32.1411V33.9078H20.1545H19.0364V32.1411C19.0364 30.1508 18.9805 29.9719 18.2761 29.7706C17.7393 29.6253 14.0718 29.6253 13.5351 29.7818C12.8642 29.9607 12.7748 30.2514 12.7748 32.2305V33.9078H11.7237H10.6615L10.628 32.1187C10.5944 30.3409 10.5944 30.3297 10.2813 30.0278C9.97943 29.7147 9.96825 29.7147 8.1904 29.6812L6.40137 29.6365V21.1497V12.663H9.24145C12.7524 12.663 12.4953 12.7972 12.9984 10.7622C13.1885 9.99067 13.4009 9.17443 13.4569 8.93962L13.5687 8.5259H30.475H47.3813L49.1368 10.2814ZM4.25453 21.1833L4.22099 25.4658L3.1923 25.4993L2.15242 25.5329V21.2168V16.912H3.21466H4.2769L4.25453 21.1833Z" fill="#26CDD3"/>
<path d="M15.2235 10.9747C14.7986 11.3996 14.7874 11.9475 15.1788 12.3724L15.4471 12.6631H21.2168H26.9864L27.2547 12.3836C27.5678 12.0817 27.6349 11.3996 27.3889 11.0865C27.0647 10.6616 26.9081 10.6504 21.1609 10.6504H15.5478L15.2235 10.9747Z" fill="#26CDD3"/>
<path d="M34.0866 10.8181C29.7259 11.7238 26.405 15.1006 25.6446 19.4166C25.4881 20.2776 25.4881 22.1561 25.6446 23.017C26.2372 26.3938 28.4847 29.3234 31.6043 30.7881C33.2145 31.5373 34.0307 31.7162 36.0322 31.7162C37.4969 31.7274 37.9107 31.6826 38.7045 31.4702C42.7634 30.3632 45.7712 27.0871 46.4868 22.9835C47.4149 17.6499 44.0604 12.4282 38.7716 10.9858C37.6199 10.6616 35.2159 10.5833 34.0866 10.8181ZM35.0259 14.4968C35.0259 16.1964 35.0259 16.2299 35.3166 16.5653C35.6856 17.0126 36.3117 17.0462 36.7813 16.6436L37.0944 16.3753L37.128 14.5751L37.1615 12.7748L37.4634 12.8419C38.794 13.1215 39.778 13.524 40.7507 14.1613L41.2875 14.4968L40.0575 15.7491C38.8834 16.9343 38.8275 17.0126 38.8275 17.4599C38.8275 18.0972 39.1965 18.4774 39.8339 18.4774C40.2699 18.4774 40.3706 18.4103 41.5558 17.2474L42.8081 16.0286L43.1883 16.6101C43.6579 17.3257 44.2505 18.7793 44.3959 19.562L44.4965 20.1546H42.7858H41.0638L40.706 20.4789C40.2029 20.9261 40.2029 21.5075 40.706 21.9548L41.0638 22.2791H42.7858H44.4965L44.3959 22.8605C44.2394 23.6991 43.725 24.9626 43.233 25.7341L42.7969 26.405L41.5446 25.1751C40.3706 24.0234 40.2699 23.9563 39.8339 23.9563C39.1965 23.9563 38.8275 24.3364 38.8275 24.9738C38.8275 25.421 38.8834 25.4993 40.0575 26.6845L41.2875 27.9369L40.7507 28.2723C39.778 28.9097 38.794 29.3122 37.4634 29.5917L37.1615 29.6588L37.128 27.8586L37.0944 26.0584L36.7813 25.79C36.3117 25.3875 35.6856 25.421 35.3166 25.8683C35.0259 26.2037 35.0259 26.2373 35.0259 27.9369C35.0259 29.5358 35.0147 29.67 34.8358 29.6253C34.724 29.5917 34.355 29.5023 34.0195 29.4352C33.2927 29.2675 32.1746 28.7755 31.4142 28.2947L30.8775 27.9481L32.0516 26.7628C32.7113 26.0919 33.248 25.4434 33.2927 25.2645C33.4716 24.5489 33.0244 23.9563 32.3088 23.9563C31.895 23.9563 31.7832 24.0345 30.6092 25.1974L29.3569 26.4274L28.9096 25.7229C28.3617 24.8396 28.0263 24.0681 27.8138 23.1512C27.7244 22.7599 27.6461 22.4132 27.6461 22.3685C27.6461 22.3238 28.4512 22.2791 29.4463 22.2567L31.2465 22.2232L31.5149 21.9101C31.6826 21.7088 31.7832 21.4516 31.7832 21.2168C31.7832 20.982 31.6826 20.7248 31.5149 20.5236L31.2465 20.2105L29.4463 20.177C28.4512 20.1546 27.6461 20.1099 27.6461 20.0651C27.6461 20.0204 27.7244 19.6738 27.8138 19.2824C28.0263 18.3656 28.3617 17.594 28.9096 16.7107L29.3569 16.0063L30.6092 17.2362C31.7944 18.4103 31.8839 18.4774 32.3199 18.4774C33.0803 18.4774 33.5723 17.6723 33.2256 16.9902C33.1586 16.8561 32.5995 16.2411 31.9845 15.6149L30.8664 14.4856L31.4142 14.139C32.4318 13.4905 33.9972 12.8867 34.9476 12.786C34.9923 12.7748 35.0259 13.5464 35.0259 14.4968Z" fill="#26CDD3"/>
<path d="M45.0556 10.7734C44.7425 10.9523 44.5077 11.5226 44.586 11.8916C44.7201 12.473 45.1115 12.6631 46.1737 12.6631C47.0235 12.6631 47.1353 12.6407 47.3813 12.3836C47.5938 12.1823 47.6609 11.9922 47.6609 11.6568C47.6609 11.3213 47.5938 11.1312 47.3813 10.93C47.1353 10.6728 47.0235 10.6504 46.1849 10.6504C45.6706 10.6504 45.1674 10.7063 45.0556 10.7734Z" fill="#26CDD3"/>
<path d="M8.8501 15.2235L8.52584 15.5478V21.2168V26.8858L8.8501 27.21L9.17436 27.5343H15.9391H22.6927L22.9946 27.2548L23.2853 26.9864V21.2168V15.4472L23.0058 15.1788L22.7374 14.8993H15.9615H9.17436L8.8501 15.2235ZM21.2168 21.2168V25.4657L15.9391 25.4993L10.6503 25.5216V21.2168V16.9119L15.9391 16.9343L21.2168 16.9678V21.2168Z" fill="#26CDD3"/>
</g>
<defs>
<clipPath id="clip0_43_754">
<rect width="53" height="40.2532" fill="white"/>
</clipPath>
</defs>
</svg>
